<?xml version="1.0" ?><svg enable-background="new 0 0 24 24" id="Layer_1" version="1.1" width="90px" height="80px" viewBox="0 0 24 24" xml:space="preserve" xmlns="http://www.w3.org/2000/svg" xmlns:xlink="http://www.w3.org/1999/xlink">
<g>
<g transform="translate(-289.60744,-317.50471)"><g><path d="M294.0974426,328.8683472l-0.1092529,0.4381714     c0.1239014,0.0308838,0.5058594,0.1568604,0.567749-0.0910645     C294.6203308,328.9568481,294.221344,328.899231,294.0974426,328.8683472z" fill="#42394C"/><path d="M294.591156,327.5645142c-1.0714111-0.2670898-2.1567383,0.3850098-2.4237671,1.456543     c-0.267334,1.0714111,0.3848267,2.1566162,1.4561157,2.4237671c1.0717163,0.2671509,2.1571045-0.3848877,2.4242554-1.4562988     C296.3149109,328.9169922,295.6628113,327.831665,294.591156,327.5645142z M294.9109192,330.0739136     c-0.1184692,0.338501-0.3999023,0.3670654-0.7741089,0.2962036l-0.0908813,0.3640137l-0.2194214-0.0546875l0.0895996-0.3591309     c-0.0568848-0.0140991-0.1149902-0.0291138-0.1748657-0.0453491l-0.0899658,0.3607788l-0.2192383-0.0546875l0.0908203-0.3646851     c-0.0512085-0.0131226-0.1033325-0.0270996-0.1564331-0.0404053l-0.2855835-0.071167l0.1089478-0.2512207     c0,0,0.1616821,0.0429688,0.1594849,0.0397949c0.0621338,0.0153809,0.0897217-0.0251465,0.1005859-0.052124l0.1435547-0.5753784     c0.0080566,0.0018921,0.0158691,0.0039063,0.0231934,0.0057373c-0.0087891-0.00354-0.0167236-0.0057373-0.0228271-0.0073242     l0.102356-0.4107666c0.0026855-0.0466309-0.0133667-0.1054688-0.1022339-0.1276245     c0.003418-0.0023193-0.1594238-0.0396118-0.1594238-0.0396118l0.0584106-0.234436l0.3026733,0.0755615l-0.0002441,0.0011597     c0.0454712,0.0112915,0.0923462,0.0220337,0.1401367,0.0328979l0.0899658-0.3604126l0.2192993,0.0546875l-0.0881348,0.3533936     c0.0588989,0.0134277,0.1181641,0.0269775,0.1758423,0.0413818l0.0875244-0.3510742l0.2194824,0.0546875l-0.0899048,0.3605957     c0.2770996,0.0953979,0.4797974,0.2385254,0.4399414,0.5046997c-0.0288086,0.1948242-0.1368408,0.2891235-0.2802124,0.3222046     C294.9061584,329.644165,295.0063782,329.8013916,294.9109192,330.0739136z" fill="#42394C"/><path d="M293.933075,329.52771l-0.1205444,0.4830933c0.1488037,0.0369873,0.607666,0.1843262,0.6754761-0.0882568     C294.5589294,329.6383057,294.0818176,329.5648193,293.933075,329.52771z" fill="#42394C"/></g><path d="M297.8659973,328.7290649c0.1614685,0,0.3009644,0.0289307,0.4181824,0.0857544    c0.1177673,0.0573425,0.2149658,0.1346436,0.2929077,0.2318115c0.0769043,0.0976868,0.1341553,0.211853,0.1711121,0.3426819    c0.0367126,0.1312256,0.0551147,0.2722778,0.0551147,0.4232788c0,0.2319336-0.0424805,0.4510803-0.1282959,0.6576233    c-0.0857849,0.2068787-0.2022095,0.386322-0.3502808,0.5393677c-0.1479492,0.1528931-0.3226624,0.273407-0.5241089,0.3624268    c-0.2011719,0.0890808-0.4198608,0.1336365-0.6546631,0.1336365c-0.030365,0-0.0837402-0.0008545-0.1591492-0.0024109    s-0.1620789-0.0093384-0.2591248-0.0224609c-0.0976868-0.0136414-0.2009888-0.033783-0.3100281-0.060791    c-0.1090088-0.0265198-0.2125549-0.0636597-0.3100281-0.1108093l0.8717651-3.6631165l0.7808228-0.1210022l-0.3121338,1.2998962    c0.0668335-0.0301208,0.1341553-0.0534363,0.2013245-0.0704346    C297.7166748,328.737793,297.7888489,328.7290649,297.8659973,328.7290649L297.8659973,328.7290649z M297.2110596,330.8862    c0.1175842,0,0.2283936-0.0289307,0.332489-0.0857239c0.1044006-0.0568542,0.1944885-0.1336365,0.2699585-0.2292786    c0.07547-0.0960388,0.1351929-0.2042542,0.1787415-0.3251343s0.0655823-0.2470093,0.0655823-0.3782349    c0-0.1611938-0.026947-0.2869263-0.0806274-0.3778381c-0.0537109-0.0905151-0.1530762-0.1360779-0.2973633-0.1360779    c-0.0472717,0-0.1081848,0.0090332-0.1837158,0.0251465c-0.0757751,0.0171204-0.1435852,0.0526428-0.2043762,0.1060791    l-0.3323669,1.3804932c0.0200195,0.00354,0.0377502,0.006897,0.052887,0.0100708    c0.014801,0.003418,0.0311584,0.0058289,0.0474548,0.0075073c0.0172424,0.0019531,0.0369568,0.0029297,0.060791,0.0029297    S297.1741638,330.8862,297.2110596,330.8862L297.2110596,330.8862z" fill="#42394C"/><path d="M299.6130676,331.4355164h-0.7457886l0.6298218-2.6502686h0.7509155L299.6130676,331.4355164z     M299.9759827,328.4623413c-0.1040955,0-0.1984558-0.0309753-0.2822266-0.0930786    c-0.0844116-0.0617065-0.1262207-0.1567078-0.1262207-0.2847595c0-0.0704346,0.0143127-0.1365051,0.0426636-0.1988525    c0.0288086-0.0622253,0.0664673-0.1157837,0.1136169-0.1613159c0.0470886-0.045166,0.1016541-0.0812683,0.1636353-0.1084595    c0.0623474-0.0267334,0.1286621-0.0401306,0.1993408-0.0401306c0.1040344,0,0.1979065,0.0310059,0.2819824,0.0930786    c0.0837402,0.0624084,0.1258545,0.1574097,0.1258545,0.28479c0,0.0706787-0.0142517,0.1369934-0.0428772,0.1992188    c-0.0284119,0.0621948-0.0660706,0.1157837-0.1132202,0.1613159c-0.0467224,0.0452271-0.1017761,0.0812073-0.1636353,0.1081238    C300.1124878,328.4494629,300.0464172,328.4623413,299.9759827,328.4623413L299.9759827,328.4623413z" fill="#42394C"/><path d="M300.9016113,328.124939l0.7811279-0.1210022l-0.1918335,0.781189h0.8365784l-0.151062,0.6145935    h-0.8315125l-0.2214966,0.9270325c-0.0204163,0.0772705-0.0319824,0.1494446-0.0352173,0.2165222    c-0.0036926,0.0673828,0.0048523,0.1252441,0.0249939,0.1739502c0.02005,0.0488586,0.0560608,0.0864868,0.1083374,0.1131287    c0.052002,0.0270386,0.1264648,0.0406799,0.2241516,0.0406799c0.0804443,0,0.158844-0.0076599,0.2346191-0.0228271    c0.0753479-0.0149536,0.1517029-0.0357361,0.2289734-0.0628967l0.0556335,0.5746155    c-0.1007996,0.0369568-0.2099304,0.0687561-0.3275146,0.09552c-0.1177979,0.0271301-0.2572327,0.0401917-0.4183655,0.0401917    c-0.2316895,0-0.4113159-0.0344238-0.5393066-0.1029053c-0.1277771-0.0690002-0.2181091-0.163269-0.2721863-0.2825928    c-0.0533142-0.1188965-0.0771484-0.2559814-0.0704956-0.4104004c0.006897-0.1547852,0.0302429-0.3174744,0.0704956-0.4888306    L300.9016113,328.124939L300.9016113,328.124939z" fill="#42394C"/><path d="M302.2946472,330.3772278c0-0.228302,0.0369568-0.443573,0.1108093-0.6450806    c0.0737305-0.2017212,0.1799316-0.3781128,0.317749-0.52948c0.1372986-0.1506348,0.3045959-0.2699585,0.5015259-0.3575439    c0.1959839-0.0871277,0.4154358-0.1310425,0.6572571-0.1310425c0.1513672,0,0.2865906,0.0143127,0.4055481,0.0429993    c0.1194458,0.0289307,0.2275085,0.0663147,0.3252563,0.1132202l-0.2572021,0.5848389    c-0.0671997-0.0272522-0.1369324-0.0512695-0.2090454-0.0730286c-0.0721741-0.0222168-0.1602783-0.0329285-0.2644958-0.0329285    c-0.2489319,0-0.4457092,0.0858154-0.5921631,0.2568359c-0.1459045,0.1711731-0.2193909,0.4015503-0.2193909,0.6905518    c0,0.1712952,0.0369568,0.3097839,0.1111145,0.415741c0.0737915,0.105957,0.2101135,0.1586609,0.40802,0.1586609    c0.0976868,0,0.1919556-0.0101929,0.2822266-0.0301208c0.0909729-0.0201416,0.1712952-0.0455322,0.2420349-0.075531    l0.0556641,0.5995178c-0.0942993,0.0365906-0.1983337,0.0696411-0.312439,0.0985718    c-0.1143494,0.0279236-0.2504883,0.0424194-0.4083252,0.0424194c-0.208374,0-0.3847656-0.0304871-0.5290527-0.0905151    c-0.1443481-0.0609741-0.2636108-0.1419067-0.3575439-0.2444458c-0.0944519-0.1027832-0.162262-0.2228088-0.2042236-0.3605652    C302.31604,330.6726685,302.2946472,330.5280762,302.2946472,330.3772278L302.2946472,330.3772278z" fill="#42394C"/><path d="M305.6077271,331.5058289c-0.178009,0-0.3326111-0.0271301-0.4637756-0.0808105    c-0.1307678-0.0537109-0.2391052-0.1290283-0.3247681-0.2267151c-0.0858154-0.0971985-0.1500244-0.2123413-0.1940002-0.3450623    c-0.0439758-0.1326599-0.065155-0.279541-0.065155-0.4404907c0-0.2019043,0.0324402-0.4037476,0.0979309-0.605011    c0.0652161-0.2017212,0.1619568-0.3829346,0.2900085-0.5440369c0.1270447-0.1613159,0.283783-0.2932129,0.4683228-0.3960571    c0.1843262-0.1021729,0.3963623-0.1535645,0.634552-0.1535645c0.1747437,0,0.3285522,0.0271912,0.4615173,0.0808716    c0.1323242,0.0535889,0.241333,0.1295471,0.3275146,0.2267456c0.0852356,0.0976563,0.1499939,0.2123413,0.1935425,0.3452454    c0.0438843,0.1323853,0.0655212,0.2796631,0.0655212,0.4407349c0,0.2012634-0.0319824,0.4031067-0.0954285,0.605011    c-0.0635376,0.2008972-0.1577759,0.3825684-0.2822266,0.5440063c-0.124176,0.1611023-0.27948,0.2929382-0.4660034,0.3953552    C306.0690002,331.4544373,305.8529663,331.5058289,305.6077271,331.5058289L305.6077271,331.5058289z M305.9804688,329.3492737    c-0.1105652,0-0.208313,0.0321045-0.2919922,0.0954895c-0.0839844,0.0641479-0.154541,0.1447754-0.2114258,0.2420349    c-0.0574646,0.0976868-0.1000977,0.2041931-0.1289063,0.3199768c-0.0285645,0.1160278-0.0425415,0.2257385-0.0425415,0.3299255    c0,0.1681824,0.0271301,0.2991638,0.0804443,0.3934021c0.0540466,0.0937805,0.1511841,0.1409302,0.2923584,0.1409302    c0.1109314,0,0.2081604-0.0318604,0.2923584-0.0959473c0.0834961-0.0636292,0.1541138-0.1443176,0.2113953-0.2417603    c0.0571289-0.0971985,0.1001282-0.20401,0.1289368-0.3199768c0.0281677-0.1156616,0.0425415-0.2259827,0.0425415-0.3300171    c0-0.1677246-0.0270081-0.2990112-0.0808105-0.393158C306.2190552,329.3964233,306.121521,329.3492737,305.9804688,329.3492737    L305.9804688,329.3492737z" fill="#42394C"/><path d="M307.9116211,331.4355164h-0.7464294l0.6298523-2.6502686h0.7512512L307.9116211,331.4355164z     M308.2739868,328.4623413c-0.1040344,0-0.1983643-0.0309753-0.2819824-0.0930786    c-0.0839844-0.0617065-0.1261597-0.1567078-0.1261597-0.2847595c0-0.0704346,0.0144958-0.1365051,0.0429077-0.1988525    c0.0284424-0.0622253,0.0663452-0.1157837,0.1134949-0.1613159c0.0468445-0.045166,0.1018982-0.0812683,0.1637573-0.1084595    c0.0619812-0.0267334,0.1282959-0.0401306,0.1987305-0.0401306c0.1042786,0,0.1984558,0.0310059,0.2823486,0.0930786    c0.0839233,0.0624084,0.1262817,0.1574097,0.1262817,0.28479c0,0.0706787-0.0150452,0.1369934-0.0432434,0.1992188    c-0.0281677,0.0621948-0.0660706,0.1157837-0.1130371,0.1613159c-0.0473022,0.0452271-0.1016541,0.0812073-0.1636353,0.1081238    C308.4109802,328.4494629,308.3447876,328.4623413,308.2739868,328.4623413z" fill="#42394C"/><path d="M309.0838013,328.9057617c0.0566101-0.0165405,0.1198425-0.036438,0.1885681-0.0581055    c0.0690002-0.021637,0.1460876-0.0418091,0.2322083-0.059967c0.0851746-0.0187378,0.1813049-0.033905,0.2870178-0.0456848    c0.1056824-0.0119934,0.2261658-0.0178528,0.3599854-0.0178528c0.3933411,0,0.6644897,0.114563,0.8141785,0.3429565    c0.1495667,0.2283936,0.1754456,0.5409851,0.0783997,0.9371643l-0.3430786,1.4309998h-0.7507019l0.332489-1.4008789    c0.0202637-0.0874634,0.0361938-0.1720276,0.0479736-0.2546387c0.0118713-0.0818787,0.0111694-0.1540527-0.0026855-0.2165222    c-0.0132446-0.0617371-0.0444946-0.1122437-0.0929565-0.1513977c-0.0492249-0.0384827-0.1235657-0.0578613-0.2244263-0.0578613    c-0.097229,0-0.196167,0.0104675-0.2971497,0.0306396l-0.4888306,2.0505981h-0.7510376L309.0838013,328.9057617z" fill="#42394C"/></g></g></svg>