<?xml version="1.0" ?>
<svg style="enable-background:new 0 0 64 64;" version="1.1" width="60" height="60" viewBox="0 0 64 64" xml:space="preserve" xmlns="http://www.w3.org/2000/svg" xmlns:xlink="http://www.w3.org/1999/xlink"><style type="text/css">
	.st0{fill:#42394C;}
</style><g id="GUIDES_64"/><g id="Layer_3"/><g id="Layer_2"><path class="st0" d="M44.8,25.2c-1.7-0.4-3.2,1.1-2.8,2.8c0.2,0.8,0.9,1.5,1.7,1.7c1.7,0.4,3.2-1.1,2.8-2.8   C46.3,26,45.6,25.4,44.8,25.2z"/><path class="st0" d="M11.2,32.8c-0.6,0-2-0.1-2-1.4c0-1.5,2-1.5,2.7-1.5c0.7,0,2.1,0.2,3.3,0.4c1.1,0.3,2.2-0.6,2.2-1.8v-0.2   c0-0.8-0.5-1.5-1.3-1.7c-1.2-0.3-2.7-0.6-4.8-0.6c-5.2,0-7.1,3.1-7.1,5.7c0,1.5,0.6,5.1,6.7,5.5c0.5,0,1.9,0.1,1.9,1.4   c0,1-1.1,1.7-3,1.7c-1.1,0-2.3-0.2-3.2-0.4c-1-0.2-2,0.5-2,1.5v0.7c0,0.8,0.5,1.4,1.3,1.6c1.5,0.3,3.1,0.4,4.9,0.4   c5.1,0,7.4-2.9,7.4-5.8C18,35.2,15.5,33.1,11.2,32.8z"/><path class="st0" d="M31.3,30.9h-4.2c-0.3,0-0.5,0.2-0.6,0.4c-0.3,0.7-0.9,2.1-2.1,3.6C24.3,35.1,24,35,24,34.8v-7.9   c0-0.4-0.4-0.7-0.8-0.6L19.7,27c-0.3,0.1-0.5,0.3-0.5,0.6v15.7c0,0.4,0.3,0.6,0.6,0.6h3.5c0.4,0,0.6-0.3,0.6-0.6v-3.7   c0-0.2,0.3-0.3,0.5-0.1c0.8,1.5,1.3,3.2,1.5,4c0.1,0.3,0.3,0.5,0.6,0.5H31c0.4,0,0.8-0.4,0.6-0.8c-0.7-2-2.1-4.6-2.6-5.5   c-0.1-0.2-0.1-0.5,0.1-0.7c1.5-2,2.4-4,2.8-5.2C32,31.4,31.7,30.9,31.3,30.9z"/><path class="st0" d="M58.3,26.4l-1.7,0.3c-0.7,0.1-1.2,0.7-1.2,1.4v14.3c0,0.8,0.7,1.5,1.5,1.5h1.7c0.8,0,1.5-0.7,1.5-1.5V27.9   C60,27,59.2,26.3,58.3,26.4z"/><path class="st0" d="M51.5,26.4l-1.7,0.3c-0.7,0.1-1.2,0.7-1.2,1.4v14.3c0,0.8,0.7,1.5,1.5,1.5h1.7c0.8,0,1.5-0.7,1.5-1.5V27.9   C53.2,27,52.4,26.3,51.5,26.4z"/><path class="st0" d="M45.4,30.9h-2.4c-0.6,0-1.1,0.5-1.1,1.1v10.8c0,0.6,0.5,1.1,1.1,1.1h2.4c0.6,0,1.1-0.5,1.1-1.1V32.1   C46.6,31.4,46.1,30.9,45.4,30.9z"/><path class="st0" d="M39.3,30.7c-3.4,0-6.4,2.6-6.4,6v6c0,0.8,0.6,1.4,1.4,1.4h2c0.8,0,1.4-0.6,1.4-1.4V38c0-1.9,0.2-2.9,1.9-3.3   c0.6-0.1,1.1-0.7,1.1-1.3V32C40.5,31.3,40,30.7,39.3,30.7z"/></g>
</svg>